<svg xmlns="http://www.w3.org/2000/svg" width="32" height="32">
    <path style="stroke:none;fill-rule:nonzero;fill:#000;fill-opacity:1" d="M31.09 13.117c.187 1.074.281 2.16.277 3.25 0 4.867-1.738 8.985-4.765 11.77h.003C23.957 30.586 20.316 32 16 32 7.164 32 0 24.836 0 16S7.164 0 16 0a15.368 15.368 0 0 1 10.703 4.164L22.137 8.73A8.699 8.699 0 0 0 16 6.332c-4.176 0-7.719 2.816-8.984 6.61a9.611 9.611 0 0 0 0 6.124h.007c1.27 3.786 4.809 6.602 8.985 6.602 2.152 0 4.008-.55 5.441-1.527h-.004a7.404 7.404 0 0 0 3.196-4.864H16v-6.16Zm0 0"/>
</svg>
