<svg xmlns="http://www.w3.org/2000/svg" width="32" height="32">
    <path style="stroke:none;fill-rule:nonzero;fill:#000;fill-opacity:1" d="M16 0c-4.344 0-4.887.02-6.594.098C7.7.176 6.54.445 5.52.84a7.807 7.807 0 0 0-2.832 1.848A7.807 7.807 0 0 0 .84 5.52C.445 6.535.176 7.7.098 9.398.02 11.11 0 11.652 0 16.004c0 4.344.02 4.887.098 6.594C.176 24.3.445 25.46.84 26.48a7.832 7.832 0 0 0 1.848 2.832A7.75 7.75 0 0 0 5.52 31.16c1.02.395 2.18.664 3.882.742C11.11 31.98 11.652 32 16 32s4.887-.02 6.598-.098c1.699-.078 2.867-.347 3.882-.742a7.774 7.774 0 0 0 2.832-1.848 7.832 7.832 0 0 0 1.848-2.832c.395-1.02.664-2.18.742-3.882C31.98 20.89 32 20.348 32 16s-.02-4.89-.098-6.598c-.078-1.703-.347-2.867-.742-3.882a7.807 7.807 0 0 0-1.848-2.832A7.807 7.807 0 0 0 26.48.84C25.46.445 24.297.176 22.594.098 20.887.02 20.344 0 15.996 0h.008Zm-1.434 2.883h1.438c4.27 0 4.777.015 6.46.094 1.563.07 2.411.332 2.974.55.746.29 1.28.637 1.84 1.196a4.934 4.934 0 0 1 1.195 1.84c.222.562.48 1.41.55 2.972.079 1.684.094 2.192.094 6.461 0 4.27-.015 4.777-.094 6.465-.07 1.559-.332 2.406-.55 2.969a4.918 4.918 0 0 1-1.196 1.84 4.983 4.983 0 0 1-1.84 1.195c-.562.219-1.41.48-2.972.55-1.684.079-2.192.094-6.461.094-4.274 0-4.781-.015-6.469-.093-1.558-.07-2.406-.332-2.969-.551a4.966 4.966 0 0 1-1.84-1.195 4.975 4.975 0 0 1-1.199-1.84c-.218-.563-.48-1.41-.55-2.973-.079-1.684-.094-2.191-.094-6.465 0-4.273.015-4.777.094-6.46.07-1.563.332-2.41.55-2.973a4.913 4.913 0 0 1 1.2-1.84 4.873 4.873 0 0 1 1.84-1.196c.562-.222 1.41-.48 2.968-.554 1.477-.067 2.05-.086 5.031-.09Zm9.977 2.656a1.92 1.92 0 1 0-.003 3.841 1.92 1.92 0 0 0 .003-3.84Zm-8.54 2.246a8.215 8.215 0 0 0-7.226 4.07 8.222 8.222 0 0 0 0 8.293 8.223 8.223 0 0 0 7.227 4.07A8.223 8.223 0 0 0 24.094 16a8.22 8.22 0 0 0-8.09-8.215Zm0 2.88A5.335 5.335 0 0 1 21.337 16a5.335 5.335 0 1 1-10.668 0 5.336 5.336 0 0 1 5.336-5.336Zm0 0"/>
</svg>
