<svg xmlns="http://www.w3.org/2000/svg" width="32" height="32">
    <path style="stroke:none;fill-rule:nonzero;fill:#000;fill-opacity:1" d="M0 2.293C0 1.027 1.05 0 2.352 0h27.296C30.95 0 32 1.027 32 2.293v27.414C32 30.973 30.95 32 29.648 32H2.352C1.05 32 0 30.973 0 29.707Zm9.887 24.496V12.34H5.086v14.45ZM7.484 10.363c1.676 0 2.72-1.105 2.72-2.496C10.171 6.45 9.16 5.371 7.52 5.371c-1.645 0-2.72 1.082-2.72 2.496 0 1.39 1.044 2.496 2.653 2.496Zm9.817 16.426v-8.07c0-.434.035-.864.16-1.172.348-.863 1.137-1.758 2.465-1.758 1.738 0 2.433 1.324 2.433 3.27v7.73h4.801V18.5c0-4.441-2.367-6.504-5.527-6.504-2.547 0-3.692 1.399-4.332 2.387v.05h-.031c.011-.019.023-.035.03-.05V12.34h-4.796c.059 1.355 0 14.45 0 14.45Zm0 0"/>
</svg>
