<svg xmlns="http://www.w3.org/2000/svg" width="32" height="32">
    <path style="stroke:none;fill-rule:nonzero;fill:#757575;fill-opacity:1" d="m19.848 13.395-1.535-2.461L16 14.668h9.332l-3.137-5.035Zm0 0"/>
    <path style="stroke:none;fill-rule:nonzero;fill:#757575;fill-opacity:1" d="M9.332 6.668H6.668v14.668a2.67 2.67 0 0 0 2.664 2.668h13.336v-2.668H9.332Zm0 0"/>
    <path style="stroke:none;fill-rule:nonzero;fill:#757575;fill-opacity:1" d="M4 12.004H1.332v14.664c0 1.469 1.2 2.668 2.668 2.668h13.332v-2.668H4ZM26.668 2.668h-12A2.672 2.672 0 0 0 12 5.336v10.668a2.668 2.668 0 0 0 2.668 2.664h12a2.667 2.667 0 0 0 2.664-2.664V5.336a2.67 2.67 0 0 0-2.664-2.668Zm-12 13.336V5.336h12v10.668Zm0 0"/>
</svg>
