<svg xmlns="http://www.w3.org/2000/svg" width="32" height="32">
    <path style="stroke:none;fill-rule:nonzero;fill:#000;fill-opacity:1" d="M28.945 11.613c1.668-1.668.907-3.613 0-4.558l-4-4c-1.68-1.668-3.613-.907-4.558 0L18.12 5.332h-3.453c-2.535 0-4 1.336-4.746 2.867L4 14.121v5.332l-.945.934c-1.668 1.68-.907 3.613 0 4.558l4 4c.718.723 1.492.989 2.226.989.946 0 1.813-.47 2.332-.989l3.602-3.613H20c2.266 0 3.414-1.41 3.828-2.797 1.504-.402 2.332-1.547 2.664-2.668 2.067-.535 2.84-2.492 2.84-3.867v-4h-.785l.398-.387M26.668 16c0 .602-.254 1.332-1.336 1.332H24v1.336c0 .598-.254 1.332-1.332 1.332h-1.336v1.332c0 .602-.254 1.336-1.332 1.336h-5.879l-4.375 4.371c-.414.387-.652.16-.8.016L4.96 23.078c-.387-.41-.16-.652-.016-.797l1.723-1.734v-5.332l2.664-2.668v2.121c0 1.613 1.066 4 4 4s4-2.387 4-4h9.336V16m.387-6.281L24.785 12H14.668v2.668c0 .598-.254 1.332-1.336 1.332C12.254 16 12 15.266 12 14.668v-4C12 10.055 12.227 8 14.668 8h4.547l3.039-3.04c.414-.386.652-.16.8-.015l3.985 3.977c.387.41.16.652.016.797Zm0 0"/>
</svg>
